<mxfile host="Electron" modified="2023-10-21T17:11:14.642Z" agent="Mozilla/5.0 (X11; Linux x86_64) AppleWebKit/537.36 (KHTML, like Gecko) draw.io/22.0.3 Chrome/114.0.5735.289 Electron/25.8.4 Safari/537.36" etag="rtOhv1t2gIKWvan1iVqb" version="22.0.3" type="device">
  <diagram name="Page-1" id="wBusoxdCjjIZT6aDX7Ud">
    <mxGraphModel dx="1687" dy="995" grid="1" gridSize="10" guides="1" tooltips="1" connect="1" arrows="1" fold="1" page="1" pageScale="1" pageWidth="850" pageHeight="1100" math="0" shadow="0">
      <root>
        <mxCell id="0" />
        <mxCell id="1" parent="0" />
        <mxCell id="jXQJZ9ifLwKTAVlttouA-1" value="" style="rounded=0;whiteSpace=wrap;html=1;fontSize=20;" vertex="1" parent="1">
          <mxGeometry width="1280" height="720" as="geometry" />
        </mxCell>
        <mxCell id="jXQJZ9ifLwKTAVlttouA-2" value="MENÜSÁV" style="rounded=1;whiteSpace=wrap;html=1;fontSize=20;" vertex="1" parent="1">
          <mxGeometry x="240" y="30" width="1000" height="60" as="geometry" />
        </mxCell>
        <mxCell id="jXQJZ9ifLwKTAVlttouA-3" value="LÁBJEGYZET" style="rounded=1;whiteSpace=wrap;html=1;fontSize=20;" vertex="1" parent="1">
          <mxGeometry x="40" y="620" width="1200" height="60" as="geometry" />
        </mxCell>
        <mxCell id="jXQJZ9ifLwKTAVlttouA-4" value="LOGÓ ÉS CÉGNÉV" style="rounded=1;whiteSpace=wrap;html=1;fontSize=20;" vertex="1" parent="1">
          <mxGeometry x="40" y="30" width="200" height="60" as="geometry" />
        </mxCell>
        <mxCell id="jXQJZ9ifLwKTAVlttouA-5" value="" style="rounded=0;whiteSpace=wrap;html=1;fontSize=20;" vertex="1" parent="1">
          <mxGeometry x="40" y="90" width="1200" height="530" as="geometry" />
        </mxCell>
        <mxCell id="jXQJZ9ifLwKTAVlttouA-18" value="TERMEK" style="rounded=1;whiteSpace=wrap;html=1;fontSize=16;" vertex="1" parent="1">
          <mxGeometry x="285" y="110" width="220" height="200" as="geometry" />
        </mxCell>
        <mxCell id="jXQJZ9ifLwKTAVlttouA-19" value="TERMEK" style="rounded=1;whiteSpace=wrap;html=1;fontSize=16;" vertex="1" parent="1">
          <mxGeometry x="515" y="110" width="220" height="200" as="geometry" />
        </mxCell>
        <mxCell id="jXQJZ9ifLwKTAVlttouA-20" value="TERMEK" style="rounded=1;whiteSpace=wrap;html=1;fontSize=16;" vertex="1" parent="1">
          <mxGeometry x="745" y="110" width="220" height="200" as="geometry" />
        </mxCell>
        <mxCell id="jXQJZ9ifLwKTAVlttouA-21" value="TERMEK" style="rounded=1;whiteSpace=wrap;html=1;fontSize=16;" vertex="1" parent="1">
          <mxGeometry x="975" y="110" width="220" height="200" as="geometry" />
        </mxCell>
        <mxCell id="jXQJZ9ifLwKTAVlttouA-23" value="OLDALSÁV&lt;br&gt;(OPCIONÁLIS)" style="rounded=0;whiteSpace=wrap;html=1;fontSize=16;" vertex="1" parent="1">
          <mxGeometry x="40" y="90" width="200" height="530" as="geometry" />
        </mxCell>
        <mxCell id="jXQJZ9ifLwKTAVlttouA-24" value="TERMEK" style="rounded=1;whiteSpace=wrap;html=1;fontSize=16;" vertex="1" parent="1">
          <mxGeometry x="285" y="330" width="220" height="200" as="geometry" />
        </mxCell>
        <mxCell id="jXQJZ9ifLwKTAVlttouA-25" value="TERMEK" style="rounded=1;whiteSpace=wrap;html=1;fontSize=16;" vertex="1" parent="1">
          <mxGeometry x="515" y="330" width="220" height="200" as="geometry" />
        </mxCell>
        <mxCell id="jXQJZ9ifLwKTAVlttouA-26" value="TERMEK" style="rounded=1;whiteSpace=wrap;html=1;fontSize=16;" vertex="1" parent="1">
          <mxGeometry x="745" y="330" width="220" height="200" as="geometry" />
        </mxCell>
        <mxCell id="jXQJZ9ifLwKTAVlttouA-27" value="TERMEK" style="rounded=1;whiteSpace=wrap;html=1;fontSize=16;" vertex="1" parent="1">
          <mxGeometry x="975" y="330" width="220" height="200" as="geometry" />
        </mxCell>
        <mxCell id="jXQJZ9ifLwKTAVlttouA-30" value="KOSÁR" style="rounded=1;whiteSpace=wrap;html=1;" vertex="1" parent="1">
          <mxGeometry x="450" y="260" width="55" height="50" as="geometry" />
        </mxCell>
        <mxCell id="jXQJZ9ifLwKTAVlttouA-31" value="KOSÁR" style="rounded=1;whiteSpace=wrap;html=1;" vertex="1" parent="1">
          <mxGeometry x="680" y="260" width="55" height="50" as="geometry" />
        </mxCell>
        <mxCell id="jXQJZ9ifLwKTAVlttouA-32" value="KOSÁR" style="rounded=1;whiteSpace=wrap;html=1;" vertex="1" parent="1">
          <mxGeometry x="910" y="260" width="55" height="50" as="geometry" />
        </mxCell>
        <mxCell id="jXQJZ9ifLwKTAVlttouA-33" value="KOSÁR" style="rounded=1;whiteSpace=wrap;html=1;" vertex="1" parent="1">
          <mxGeometry x="1140" y="260" width="55" height="50" as="geometry" />
        </mxCell>
        <mxCell id="jXQJZ9ifLwKTAVlttouA-34" value="KOSÁR" style="rounded=1;whiteSpace=wrap;html=1;" vertex="1" parent="1">
          <mxGeometry x="450" y="480" width="55" height="50" as="geometry" />
        </mxCell>
        <mxCell id="jXQJZ9ifLwKTAVlttouA-35" value="KOSÁR" style="rounded=1;whiteSpace=wrap;html=1;" vertex="1" parent="1">
          <mxGeometry x="680" y="480" width="55" height="50" as="geometry" />
        </mxCell>
        <mxCell id="jXQJZ9ifLwKTAVlttouA-36" value="KOSÁR" style="rounded=1;whiteSpace=wrap;html=1;" vertex="1" parent="1">
          <mxGeometry x="910" y="480" width="55" height="50" as="geometry" />
        </mxCell>
        <mxCell id="jXQJZ9ifLwKTAVlttouA-37" value="KOSÁR" style="rounded=1;whiteSpace=wrap;html=1;" vertex="1" parent="1">
          <mxGeometry x="1140" y="480" width="55" height="50" as="geometry" />
        </mxCell>
        <mxCell id="jXQJZ9ifLwKTAVlttouA-38" value="STÁTUSZ" style="rounded=1;whiteSpace=wrap;html=1;" vertex="1" parent="1">
          <mxGeometry x="395" y="260" width="55" height="50" as="geometry" />
        </mxCell>
        <mxCell id="jXQJZ9ifLwKTAVlttouA-46" value="STÁTUSZ" style="rounded=1;whiteSpace=wrap;html=1;" vertex="1" parent="1">
          <mxGeometry x="625" y="260" width="55" height="50" as="geometry" />
        </mxCell>
        <mxCell id="jXQJZ9ifLwKTAVlttouA-47" value="STÁTUSZ" style="rounded=1;whiteSpace=wrap;html=1;" vertex="1" parent="1">
          <mxGeometry x="855" y="260" width="55" height="50" as="geometry" />
        </mxCell>
        <mxCell id="jXQJZ9ifLwKTAVlttouA-48" value="STÁTUSZ" style="rounded=1;whiteSpace=wrap;html=1;" vertex="1" parent="1">
          <mxGeometry x="1085" y="260" width="55" height="50" as="geometry" />
        </mxCell>
        <mxCell id="jXQJZ9ifLwKTAVlttouA-49" value="STÁTUSZ" style="rounded=1;whiteSpace=wrap;html=1;" vertex="1" parent="1">
          <mxGeometry x="395" y="480" width="55" height="50" as="geometry" />
        </mxCell>
        <mxCell id="jXQJZ9ifLwKTAVlttouA-50" value="STÁTUSZ" style="rounded=1;whiteSpace=wrap;html=1;" vertex="1" parent="1">
          <mxGeometry x="625" y="480" width="55" height="50" as="geometry" />
        </mxCell>
        <mxCell id="jXQJZ9ifLwKTAVlttouA-51" value="STÁTUSZ" style="rounded=1;whiteSpace=wrap;html=1;" vertex="1" parent="1">
          <mxGeometry x="855" y="480" width="55" height="50" as="geometry" />
        </mxCell>
        <mxCell id="jXQJZ9ifLwKTAVlttouA-52" value="STÁTUSZ" style="rounded=1;whiteSpace=wrap;html=1;" vertex="1" parent="1">
          <mxGeometry x="1085" y="480" width="55" height="50" as="geometry" />
        </mxCell>
      </root>
    </mxGraphModel>
  </diagram>
</mxfile>
